<?xml version="1.0" encoding="UTF-8"?>
<svg width="287px" height="294px" viewBox="0 0 287 294" version="1.1" xmlns="http://www.w3.org/2000/svg" xmlns:xlink="http://www.w3.org/1999/xlink">
    <title>LogoCircle</title>
    <g id="Page-1" stroke="none" stroke-width="1" fill="none" fill-rule="evenodd">
        <g id="Group-3" transform="translate(7, 10)">
            <circle id="Oval" fill="#FFFFFF" cx="136.5" cy="136.5" r="136.5"></circle>
            <path d="M39.3987589,173.423779 C39.3987589,160.075143 81.4329916,124.20844 90.6229502,124.20844 C99.8129087,124.20844 149.011223,166.807566 149.011223,175.613706 C149.011223,179.895238 138.935002,194.548397 126.059542,207.193549 C112.453097,220.556609 95.8735641,231.822885 90.6229502,231.822885 C80.4038029,231.822885 39.3987589,186.772415 39.3987589,173.423779 Z" id="Purple" fill="#550A2E" transform="translate(94.205, 178.0157) scale(1, -1) translate(-94.205, -178.0157)"></path>
            <path d="M125.516024,173.423779 C125.516024,160.075143 167.550257,124.20844 176.740215,124.20844 C185.930174,124.20844 235.128488,166.807566 235.128488,175.613706 C235.128488,179.895238 225.052267,194.548397 212.176807,207.193549 C198.570362,220.556609 181.990829,231.822885 176.740215,231.822885 C166.521068,231.822885 125.516024,186.772415 125.516024,173.423779 Z" id="Path" fill="#9F0021" transform="translate(180.3223, 178.0157) scale(-1, -1) translate(-180.3223, -178.0157)"></path>
            <path d="M125.516024,90.0169474 C125.516024,76.6683115 167.550257,40.8016087 176.740215,40.8016087 C185.930174,40.8016087 235.128488,83.4007344 235.128488,92.2068752 C235.128488,96.488407 225.052267,111.141566 212.176807,123.786718 C198.570362,137.149778 181.990829,148.416054 176.740215,148.416054 C166.521068,148.416054 125.516024,103.365583 125.516024,90.0169474 Z" id="Path" fill="#FF6632" transform="translate(180.3223, 94.6088) scale(-1, 1) translate(-180.3223, -94.6088)"></path>
            <path d="M39.3987589,90.0169474 C39.3987589,76.6683115 81.4329916,40.8016087 90.6229502,40.8016087 C99.8129087,40.8016087 149.011223,83.4007344 149.011223,92.2068752 C149.011223,96.488407 138.935002,111.141566 126.059542,123.786718 C112.453097,137.149778 95.8735641,148.416054 90.6229502,148.416054 C80.4038029,148.416054 39.3987589,103.365583 39.3987589,90.0169474 Z" id="Path" fill="#CF0731"></path>
            <path d="M90.6229502,124.20844 C94.0911057,124.20844 102.501975,129.123823 111.733989,136.312115 C102.501975,143.500671 94.0911057,148.416054 90.6229502,148.416054 C87.2278558,148.416054 80.4347392,143.443566 72.8761785,136.313102 C80.4347392,129.180928 87.2278558,124.20844 90.6229502,124.20844 Z" id="Combined-Shape" fill="#550A2E"></path>
        </g>
    </g>
</svg>